<?xml version="1.0" standalone="no"?>
<!DOCTYPE svg PUBLIC "-//W3C//DTD SVG 20010904//EN"
 "http://www.w3.org/TR/2001/REC-SVG-20010904/DTD/svg10.dtd">
<svg version="1.0" xmlns="http://www.w3.org/2000/svg"
 width="1468.000000pt" height="1468.000000pt" viewBox="0 0 1468.000000 1468.000000"
 preserveAspectRatio="xMidYMid meet">
<metadata>
Created by potrace 1.14, written by Peter Selinger 2001-2017
</metadata>
<g transform="translate(0.000000,1468.000000) scale(0.100000,-0.100000)"
fill="#000000" stroke="none">
<path d="M6585 14642 c-2 -3 -35 -6 -72 -8 -37 -2 -86 -6 -108 -8 -22 -3 -62
-8 -90 -11 -27 -3 -61 -8 -75 -11 -14 -3 -41 -8 -60 -11 -64 -8 -85 -12 -87
-14 -2 -1 -6 -2 -10 -3 -25 -6 -91 -19 -108 -22 -11 -2 -54 -13 -95 -24 -41
-11 -84 -22 -96 -24 -11 -2 -26 -6 -32 -10 -7 -4 -20 -9 -29 -11 -10 -2 -31
-9 -48 -16 -16 -7 -33 -13 -37 -14 -5 -2 -10 -4 -13 -5 -3 -1 -8 -3 -12 -5 -5
-1 -21 -7 -36 -13 -16 -7 -34 -12 -42 -12 -8 0 -17 -5 -20 -10 -4 -6 -11 -8
-16 -5 -5 4 -9 1 -9 -4 0 -6 -5 -11 -11 -11 -12 0 -73 -27 -176 -77 -40 -19
-75 -34 -79 -33 -4 1 -10 -2 -13 -7 -3 -5 -19 -16 -36 -25 -80 -41 -120 -64
-123 -70 -2 -5 -9 -8 -17 -8 -7 0 -18 -7 -25 -15 -7 -8 -16 -12 -21 -9 -5 3
-9 1 -9 -4 0 -5 -13 -15 -30 -22 -16 -7 -30 -16 -30 -21 0 -5 -3 -8 -7 -7 -7
2 -96 -53 -138 -84 -5 -5 -35 -26 -65 -47 -30 -22 -59 -44 -65 -48 -5 -5 -30
-24 -55 -43 -25 -19 -46 -38 -48 -42 -2 -5 -8 -8 -13 -8 -6 0 -20 -10 -33 -22
-13 -13 -45 -41 -71 -63 -61 -51 -131 -113 -167 -147 -15 -15 -28 -25 -28 -23
0 2 -22 -17 -49 -43 -27 -26 -82 -74 -123 -107 -40 -33 -74 -63 -76 -67 -2 -5
-8 -8 -14 -8 -5 0 -16 -6 -23 -12 -26 -23 -39 -33 -120 -88 -44 -30 -88 -62
-97 -71 -10 -9 -31 -22 -46 -30 -15 -8 -36 -22 -46 -31 -11 -10 -28 -20 -38
-24 -10 -3 -18 -10 -18 -15 0 -5 -7 -9 -15 -9 -8 0 -15 -4 -15 -10 0 -5 -6
-10 -14 -10 -8 0 -16 -3 -18 -7 -1 -5 -23 -21 -48 -38 -25 -16 -49 -35 -55
-41 -5 -5 -28 -23 -50 -39 -45 -33 -80 -62 -107 -87 -10 -10 -18 -16 -18 -13
0 2 -13 -8 -28 -23 -16 -15 -40 -36 -53 -48 -33 -28 -147 -150 -189 -203 -19
-24 -40 -49 -47 -56 -7 -7 -9 -15 -6 -19 4 -3 2 -6 -4 -6 -5 0 -25 -21 -43
-47 -19 -27 -38 -49 -42 -51 -4 -2 -8 -10 -8 -17 0 -7 -4 -15 -8 -17 -5 -1
-36 -39 -69 -83 -34 -44 -73 -93 -87 -108 -14 -15 -26 -30 -26 -32 0 -3 -16
-22 -35 -42 -19 -20 -35 -40 -35 -44 0 -4 -7 -15 -16 -24 -9 -8 -37 -44 -62
-78 -25 -34 -49 -63 -54 -65 -4 -2 -8 -8 -8 -13 0 -11 -42 -72 -52 -77 -5 -2
-8 -8 -8 -13 0 -11 -40 -70 -55 -81 -5 -4 -6 -8 -1 -8 5 0 2 -8 -7 -18 -10
-10 -14 -22 -10 -25 3 -4 2 -7 -4 -7 -10 0 -131 -233 -137 -263 -2 -7 -9 -25
-15 -42 -7 -16 -14 -37 -16 -45 -2 -8 -9 -31 -15 -50 -6 -19 -13 -51 -16 -70
-8 -46 -12 -65 -14 -65 -1 0 -3 -13 -5 -30 -1 -16 -6 -57 -10 -90 -4 -33 -8
-80 -9 -105 -1 -25 -5 -51 -10 -58 -4 -7 -2 -12 5 -12 10 0 10 -3 1 -12 -8 -8
-8 -17 -1 -30 7 -13 7 -23 -1 -33 -8 -9 -8 -15 0 -20 8 -5 8 -11 1 -19 -6 -7
-9 -15 -6 -18 10 -9 13 -88 3 -94 -5 -4 -5 -11 1 -18 6 -7 12 -34 12 -60 1
-26 5 -49 9 -51 4 -3 5 -17 2 -31 -4 -20 -2 -25 8 -19 9 6 10 3 1 -13 -7 -14
-8 -23 -1 -27 6 -4 8 -11 4 -16 -3 -5 0 -16 6 -24 10 -12 10 -15 -1 -15 -10 0
-11 -2 -2 -8 10 -7 30 -78 25 -94 -1 -5 3 -8 9 -8 5 0 7 -5 3 -11 -3 -6 0 -15
7 -20 10 -6 11 -9 2 -9 -7 0 -13 -5 -13 -11 0 -5 4 -7 10 -4 9 6 14 -10 13
-42 -1 -7 3 -13 7 -13 4 0 11 -7 14 -16 4 -10 2 -13 -7 -8 -6 4 -4 -2 6 -13
10 -11 20 -30 22 -43 2 -12 10 -29 17 -38 11 -13 11 -14 -2 -7 -10 6 -9 2 3
-12 10 -12 19 -28 21 -36 1 -8 8 -22 15 -31 7 -9 10 -16 5 -16 -5 0 -4 -4 1
-8 13 -9 48 -72 40 -72 -4 0 0 -7 7 -15 29 -32 37 -43 32 -47 -2 -3 6 -16 18
-30 13 -14 24 -31 26 -39 2 -8 9 -17 15 -21 7 -4 8 -8 4 -8 -4 0 4 -11 18 -25
23 -24 29 -38 26 -58 -1 -5 3 -6 8 -2 11 6 34 -29 24 -39 -3 -3 1 -6 10 -6 9
0 19 -11 23 -25 4 -14 9 -24 11 -21 7 7 33 -20 33 -33 0 -5 12 -19 26 -30 15
-12 23 -21 19 -21 -4 0 7 -13 24 -29 17 -16 31 -34 31 -41 0 -6 4 -9 9 -5 5 3
12 -4 16 -15 3 -11 13 -20 21 -20 8 0 14 -7 14 -17 0 -9 3 -14 6 -10 8 8 34
-18 34 -33 0 -6 5 -8 10 -5 6 3 10 1 10 -4 0 -6 7 -11 15 -11 8 0 14 -3 14 -7
-3 -20 2 -34 10 -28 10 6 61 -43 61 -58 0 -4 4 -6 8 -3 5 3 15 -3 23 -12 22
-25 148 -135 168 -146 9 -6 27 -20 41 -33 14 -13 28 -23 32 -23 3 0 13 -6 20
-13 25 -25 149 -97 298 -175 58 -30 108 -59 111 -64 3 -5 8 -9 10 -9 15 2 49
-13 49 -22 0 -6 3 -7 7 -4 3 4 11 3 17 -2 23 -18 87 -51 100 -51 8 0 16 -4 18
-9 1 -5 82 -47 178 -94 200 -97 278 -131 405 -177 20 -8 25 -14 17 -19 -7 -4
-15 -21 -18 -37 -3 -16 -10 -31 -15 -35 -6 -3 -9 -10 -8 -15 1 -5 0 -12 -1
-16 -4 -13 -7 -27 -9 -39 0 -5 -5 -7 -11 -4 -6 3 -7 -1 -4 -10 4 -8 0 -23 -7
-32 -12 -14 -12 -16 1 -8 12 7 13 6 3 -7 -7 -8 -10 -18 -6 -21 3 -4 0 -7 -7
-7 -7 0 -10 -3 -7 -7 4 -3 1 -13 -6 -21 -10 -13 -9 -15 3 -8 8 4 7 1 -3 -7
-12 -10 -14 -17 -7 -22 15 -9 1 -27 -17 -20 -13 4 -14 3 -3 -10 9 -11 10 -18
1 -28 -6 -8 -7 -18 -3 -22 4 -5 -2 -5 -13 -1 -15 5 -17 4 -9 -4 13 -13 7 -50
-8 -50 -5 0 -7 -4 -3 -9 3 -5 1 -12 -5 -16 -6 -4 -8 -10 -5 -15 6 -11 -5 -41
-14 -36 -3 2 -6 -12 -7 -32 0 -20 -6 -38 -12 -40 -6 -2 -9 -9 -6 -17 3 -7 1
-16 -5 -20 -6 -3 -11 -19 -11 -34 0 -16 -7 -34 -15 -41 -12 -10 -13 -16 -4
-26 9 -11 8 -14 -1 -14 -10 0 -10 -3 0 -15 11 -13 10 -14 -4 -9 -9 3 -16 1
-16 -5 0 -6 4 -11 8 -11 5 0 9 -7 9 -15 0 -8 -4 -12 -10 -8 -5 3 -7 -5 -5 -18
2 -13 -4 -30 -12 -37 -8 -8 -9 -11 -2 -7 15 8 17 -31 2 -40 -8 -5 -7 -11 1
-21 9 -11 8 -14 -2 -14 -11 0 -11 -2 1 -10 8 -5 10 -10 3 -10 -12 0 -12 -17 0
-37 4 -6 3 -14 -3 -18 -6 -4 -8 -11 -5 -16 4 -5 0 -9 -7 -9 -9 0 -9 -3 2 -10
12 -8 12 -10 1 -10 -10 0 -11 -3 -2 -14 10 -11 8 -17 -6 -25 -10 -6 -12 -11
-5 -11 14 0 13 -58 -1 -67 -4 -2 -3 -11 3 -18 8 -10 8 -19 0 -34 -7 -15 -7
-21 0 -21 7 0 8 -6 0 -19 -5 -11 -6 -22 -1 -25 8 -5 7 -23 -2 -71 -3 -11 0
-26 5 -32 7 -9 5 -15 -7 -19 -13 -5 -14 -9 -3 -15 8 -6 9 -9 1 -9 -6 0 -9 -9
-5 -22 3 -15 2 -19 -7 -14 -14 9 -11 -16 4 -26 6 -5 5 -8 -4 -8 -7 0 -11 -6
-7 -15 3 -8 1 -15 -5 -15 -6 0 -9 -7 -6 -15 4 -8 2 -17 -4 -21 -6 -3 -8 -12
-5 -20 3 -7 -2 -20 -10 -29 -12 -11 -12 -15 -2 -15 9 0 9 -3 2 -8 -6 -4 -10
-15 -8 -24 1 -10 -2 -18 -6 -18 -5 0 -7 -9 -5 -19 2 -11 -3 -22 -12 -25 -12
-5 -13 -9 -3 -21 10 -12 10 -15 0 -15 -7 0 -10 -7 -6 -15 3 -8 1 -15 -3 -15
-5 0 -8 -11 -6 -25 1 -14 -1 -25 -5 -25 -4 0 -10 -18 -14 -40 -3 -23 -10 -39
-15 -36 -4 3 -8 -1 -8 -9 0 -8 5 -11 11 -8 6 3 5 0 -1 -8 -7 -7 -13 -21 -13
-32 0 -10 -4 -16 -9 -13 -5 4 -7 -3 -4 -14 3 -12 0 -20 -7 -20 -7 0 -10 -8 -7
-20 3 -11 1 -20 -4 -20 -5 0 -9 -8 -9 -18 0 -10 -5 -23 -12 -30 -7 -7 -9 -12
-5 -12 4 0 -4 -18 -19 -41 -14 -23 -21 -38 -15 -35 6 4 11 2 11 -3 0 -6 -7
-11 -15 -11 -8 0 -14 -3 -14 -7 3 -20 -2 -34 -10 -28 -6 3 -8 -3 -6 -15 2 -11
-1 -22 -6 -25 -5 -4 -6 -11 -3 -17 4 -7 2 -8 -4 -4 -10 6 -17 -8 -9 -17 1 -2
-6 -16 -17 -31 -10 -16 -13 -25 -7 -22 18 11 13 -9 -6 -26 -17 -15 -103 -64
-288 -163 -49 -27 -112 -61 -138 -77 -26 -15 -49 -28 -51 -28 -2 0 -41 -21
-87 -47 -46 -25 -115 -64 -154 -85 -38 -22 -112 -59 -164 -84 -125 -59 -333
-164 -346 -174 -5 -4 -37 -22 -70 -40 -104 -57 -119 -66 -216 -126 -155 -96
-276 -186 -324 -243 -11 -13 -27 -31 -35 -40 -26 -30 -64 -100 -103 -191 -49
-114 -40 -255 20 -326 18 -20 83 -55 113 -60 71 -12 96 -14 105 -7 28 22 67
88 72 121 4 20 14 49 22 63 17 28 98 119 106 119 2 0 16 11 31 25 45 42 357
251 414 277 180 84 312 148 670 326 228 114 418 211 422 217 4 5 8 7 9 3 1 -5
2 -14 4 -20 1 -7 -4 -23 -12 -35 -11 -19 -11 -22 0 -17 8 3 14 -2 14 -10 0 -8
-4 -13 -9 -10 -4 3 -8 0 -8 -5 0 -6 6 -11 13 -11 9 0 8 -3 -2 -9 -9 -6 -10
-11 -2 -15 7 -5 8 -13 2 -24 -6 -11 -5 -25 1 -36 9 -15 8 -18 -4 -14 -8 4 -15
0 -15 -8 0 -7 3 -11 7 -9 4 2 7 -13 6 -35 -1 -22 -4 -40 -7 -40 -4 0 -3 -15 1
-34 6 -27 5 -33 -6 -29 -10 4 -12 0 -8 -11 3 -9 11 -16 17 -16 6 0 7 -3 4 -6
-4 -4 -14 -1 -23 7 -16 13 -16 12 -4 -11 10 -18 10 -25 1 -28 -9 -3 -9 -8 1
-20 11 -13 11 -14 -1 -7 -11 6 -13 3 -9 -13 4 -14 2 -20 -5 -15 -7 4 -8 0 -3
-12 6 -16 4 -16 -11 -4 -15 12 -16 12 -10 -3 4 -12 0 -21 -13 -28 -11 -6 -19
-16 -17 -22 1 -6 -4 -13 -10 -15 -7 -3 -13 0 -13 7 0 6 5 8 12 4 6 -4 8 -3 4
4 -3 6 3 17 15 25 11 8 16 18 11 21 -6 3 -13 -1 -16 -10 -3 -9 -11 -12 -18 -8
-7 4 -10 4 -6 -1 4 -4 3 -14 -3 -22 -9 -9 -8 -17 1 -28 6 -8 9 -19 5 -26 -5
-7 0 -7 16 1 24 13 24 13 5 -9 -13 -14 -15 -21 -6 -21 7 0 10 -8 7 -20 -3 -11
-2 -18 3 -15 4 3 11 -2 14 -11 4 -10 2 -13 -7 -8 -9 5 -9 4 0 -7 7 -7 13 -20
13 -28 0 -14 -1 -14 -10 -1 -6 9 -10 10 -10 3 0 -6 5 -15 10 -18 6 -4 8 -11 5
-16 -3 -5 0 -6 8 -3 8 3 18 1 22 -5 4 -7 -1 -8 -12 -4 -16 6 -17 5 -3 -12 15
-18 14 -18 -13 0 -15 10 -30 15 -34 11 -3 -3 -1 -6 5 -6 7 0 12 -10 12 -22 0
-19 2 -20 10 -8 6 9 10 10 10 3 0 -20 -18 -24 -29 -6 -6 10 -11 13 -11 7 0 -5
7 -19 15 -30 8 -10 15 -28 15 -39 l1 -20 9 20 c8 19 9 18 9 -4 1 -21 3 -22 19
-10 9 7 14 10 10 5 -4 -4 -3 -13 3 -20 26 -31 43 -51 37 -41 -5 7 -2 12 6 12
8 0 12 -12 11 -33 -1 -24 2 -31 10 -24 7 6 11 3 11 -10 0 -10 -4 -16 -8 -14
-4 3 -5 -2 -2 -11 4 -9 13 -14 21 -11 10 4 11 1 3 -14 -7 -13 -7 -21 2 -26 7
-4 8 -3 4 4 -4 7 -2 12 5 12 6 0 9 -8 6 -20 -4 -14 0 -20 11 -20 13 0 14 -2 4
-9 -11 -6 -10 -10 3 -15 15 -5 15 -9 4 -23 -8 -9 -9 -14 -3 -10 7 4 14 0 18
-8 3 -8 2 -15 -2 -15 -5 0 -7 -13 -6 -29 1 -18 -4 -32 -12 -35 -12 -5 -13 -10
-3 -27 9 -18 9 -21 -3 -17 -10 4 -14 -2 -14 -18 0 -22 8 -29 29 -25 5 1 6 -3
2 -9 -3 -6 -12 -7 -18 -4 -7 4 -9 4 -5 -1 4 -4 2 -15 -4 -24 -7 -9 -8 -13 -3
-8 4 4 20 -3 34 -15 14 -13 21 -16 16 -8 -8 13 -7 13 5 0 8 -9 20 -17 25 -19
6 -2 9 -7 8 -12 -2 -5 8 -4 21 1 14 5 27 5 33 -1 6 -6 19 -11 31 -12 11 0 18
-5 16 -9 -3 -4 -1 -8 4 -8 12 0 37 -57 52 -120 7 -30 22 -82 33 -115 22 -69
96 -215 109 -215 4 0 8 -5 8 -11 0 -6 10 -23 22 -38 13 -15 34 -42 48 -61 14
-18 31 -39 38 -46 6 -7 12 -16 12 -19 0 -4 11 -21 25 -37 14 -16 23 -34 19
-39 -3 -5 -1 -9 5 -9 9 0 74 -158 87 -213 3 -15 10 -30 15 -33 5 -3 9 -14 9
-25 0 -10 4 -19 8 -19 5 0 9 -6 9 -12 1 -19 7 -42 13 -48 3 -3 18 -25 32 -50
29 -51 68 -98 69 -84 0 5 4 -1 9 -14 5 -12 17 -22 25 -22 9 0 13 -5 10 -10 -3
-6 2 -13 12 -17 10 -4 25 -15 34 -25 9 -10 20 -18 23 -18 12 0 35 -27 29 -34
-4 -3 1 -6 10 -6 10 0 17 -4 17 -10 0 -5 7 -10 17 -10 9 0 13 -3 10 -7 -4 -3
5 -15 20 -25 16 -10 24 -18 20 -18 -5 0 6 -15 25 -34 18 -19 36 -32 41 -29 6
4 11 -20 8 -40 0 -4 3 -6 7 -5 4 2 20 -9 35 -24 16 -16 25 -28 22 -28 -8 0 54
-81 70 -92 5 -4 6 -8 1 -8 -5 0 -3 -7 4 -15 7 -8 9 -15 4 -15 -4 0 1 -7 12
-15 10 -8 15 -15 11 -15 -4 0 1 -10 13 -22 11 -12 20 -28 20 -35 0 -7 5 -13
11 -13 5 0 8 -4 4 -9 -3 -5 -1 -12 5 -16 5 -3 17 -23 27 -43 9 -20 19 -39 22
-42 4 -3 13 -18 21 -35 8 -16 17 -32 20 -35 12 -12 80 -152 80 -165 0 -8 4
-15 10 -15 5 0 7 -7 4 -15 -4 -8 -1 -15 5 -15 6 0 10 -3 9 -7 -1 -5 3 -30 10
-58 7 -27 15 -61 18 -75 10 -46 17 -134 16 -225 -2 -488 0 -605 9 -605 4 0 6
-12 7 -27 0 -59 2 -74 10 -70 4 3 8 -16 9 -41 2 -26 3 -55 3 -65 1 -9 4 -17 8
-17 4 0 9 -10 10 -22 4 -37 7 -52 15 -65 4 -6 8 -23 9 -36 1 -14 6 -23 10 -21
4 3 8 -9 8 -25 0 -17 5 -31 11 -31 6 0 9 -6 6 -14 -3 -8 1 -20 9 -26 8 -7 14
-20 14 -30 0 -10 7 -21 16 -24 9 -4 14 -9 11 -13 -4 -3 -2 -12 4 -20 10 -11
15 -11 27 -1 13 10 14 10 8 1 -4 -8 -2 -13 5 -13 8 0 8 -5 -2 -18 -13 -16 -12
-16 6 -1 11 9 27 14 35 12 12 -4 13 -3 1 5 -16 12 -6 33 13 26 7 -3 13 2 13
11 0 11 -6 14 -21 9 -21 -6 -21 -6 -1 9 11 8 24 13 30 9 5 -3 4 2 -4 11 -12
15 -12 17 4 11 12 -5 16 -4 11 4 -3 6 -2 13 2 16 5 3 7 17 4 31 -2 14 0 25 6
25 6 0 9 11 7 25 -1 14 2 25 8 25 6 0 7 3 4 7 -4 3 -1 13 6 21 9 12 9 14 0 9
-9 -5 -8 0 2 19 7 14 11 37 9 51 -3 17 -1 22 7 17 8 -5 10 1 7 20 -3 14 -2 26
2 26 4 0 11 7 14 16 3 9 2 12 -4 9 -6 -4 -1 10 10 30 11 20 16 34 10 30 -6 -3
-7 0 -4 9 3 9 11 16 17 16 6 0 7 3 4 7 -4 3 -2 12 4 20 6 7 8 13 4 13 -5 0 0
10 11 22 10 12 13 18 7 14 -18 -10 -16 4 1 18 8 6 16 18 18 26 2 8 10 21 18
28 12 11 12 12 1 6 -9 -5 -6 4 7 23 12 17 19 33 15 37 -3 3 -1 6 6 6 8 0 11 8
8 19 -3 15 -1 18 11 14 10 -4 13 -2 8 5 -3 6 -2 13 4 17 6 4 7 11 4 17 -5 7
-2 9 8 6 11 -5 14 0 12 18 -1 13 2 24 8 24 6 0 8 7 4 15 -3 8 -1 15 4 15 6 0
10 9 10 20 0 11 4 20 9 20 8 0 25 53 24 77 0 7 3 13 8 13 5 0 8 3 8 8 -3 20 2
43 9 38 5 -3 8 8 7 24 -1 17 2 27 8 23 5 -3 7 0 5 8 -3 8 2 20 11 26 13 10 13
14 3 21 -10 7 -10 11 2 22 9 7 14 16 11 20 -3 5 -1 11 5 15 6 4 8 11 5 16 -4
5 -1 9 5 9 6 0 8 5 5 11 -4 6 1 16 11 23 12 9 14 15 5 20 -8 5 -7 11 4 22 8 9
15 26 15 40 0 14 6 27 14 30 8 3 13 11 10 19 -3 7 2 15 12 19 14 5 14 9 3 23
-10 12 -10 14 -1 9 12 -7 15 0 15 36 0 10 3 15 8 12 8 -5 37 53 44 86 1 8 9
14 16 12 8 -2 11 0 7 3 -4 4 0 22 9 39 10 17 16 34 15 39 -1 4 2 7 7 7 5 0 17
13 25 30 9 16 23 42 31 58 8 15 22 36 33 47 10 11 20 25 22 30 7 22 53 85 62
85 5 0 7 4 4 9 -4 5 -3 11 2 13 8 3 137 186 217 308 52 79 175 316 175 338 0
6 5 12 10 12 6 0 10 7 10 15 0 8 4 15 10 15 5 0 7 6 4 14 -3 8 5 21 18 30 13
9 22 20 22 24 -1 4 5 16 12 27 8 11 14 16 14 11 0 -5 8 1 19 12 20 24 37 30
25 9 -6 -9 -5 -9 8 0 8 7 19 9 24 5 4 -4 2 1 -5 11 -12 15 -12 17 3 11 9 -3
16 -11 16 -18 0 -6 5 -4 10 4 8 12 12 13 19 2 7 -11 9 -11 14 2 4 9 14 13 27
11 13 -2 20 1 20 11 0 8 4 13 8 10 5 -3 30 15 56 40 26 24 51 44 56 44 4 0 11
7 14 16 4 9 9 15 11 12 8 -8 139 126 153 156 6 14 15 26 20 26 4 0 9 8 10 18
1 9 4 31 6 47 2 17 6 37 9 45 3 8 8 33 11 55 3 22 12 65 21 95 9 30 16 61 17
68 1 6 5 12 10 12 4 0 8 7 8 15 0 8 23 37 50 64 28 28 50 55 50 61 0 5 8 10
17 10 9 0 14 3 10 6 -5 5 8 25 39 58 5 6 13 19 17 29 4 10 12 15 18 11 8 -5 8
-1 0 14 -8 15 -8 23 1 28 7 5 8 3 3 -7 -5 -8 -4 -11 0 -6 12 10 17 50 7 43 -5
-3 -9 1 -9 8 0 8 6 12 13 9 6 -2 15 1 19 7 3 6 3 10 -2 9 -19 -3 -34 2 -28 10
3 5 0 13 -6 17 -9 5 -7 11 6 21 17 12 17 13 2 13 -9 0 -17 5 -17 11 0 5 4 8 9
4 5 -3 13 0 17 6 4 8 3 9 -4 5 -7 -4 -12 -2 -12 4 0 6 -5 8 -12 4 -9 -5 -9 -2
1 9 10 13 10 17 1 17 -9 0 -9 4 1 17 8 9 9 14 4 11 -6 -4 -17 -3 -25 3 -12 7
-12 9 4 9 15 0 16 3 6 15 -6 8 -8 20 -4 26 5 8 3 9 -6 4 -10 -6 -11 -2 -6 18
4 19 3 26 -6 23 -7 -1 -10 -1 -5 1 4 3 7 11 7 19 0 9 -5 12 -12 8 -7 -5 -8 -3
-2 7 4 8 9 20 10 26 3 21 28 73 35 73 4 0 10 11 13 25 4 14 11 25 16 25 6 0
10 6 10 13 0 6 10 24 23 39 60 72 116 146 133 178 10 19 21 37 24 40 15 14 59
132 54 145 -4 8 -1 15 6 15 7 0 9 8 4 23 -4 12 -8 36 -9 52 -2 17 -4 32 -5 35
-1 3 -2 8 -1 13 0 4 -4 7 -10 7 -5 0 -8 4 -4 9 3 5 1 12 -4 16 -11 6 -7 216 5
278 10 54 13 78 19 167 11 152 11 200 1 204 -6 2 -5 5 2 5 7 1 10 6 7 12 -6 9
-11 65 -17 202 -1 15 -6 27 -11 27 -5 0 -4 7 3 15 9 11 9 15 1 15 -7 0 -11 6
-10 13 4 31 -2 68 -10 62 -6 -3 -6 6 -1 25 5 19 5 28 -1 25 -8 -6 -12 12 -12
58 0 9 -3 17 -6 17 -6 0 -11 21 -14 63 -1 9 -6 17 -12 17 -5 0 -3 5 5 10 11 7
11 10 2 10 -7 0 -11 4 -7 9 3 5 1 12 -3 15 -5 3 -8 15 -7 28 1 13 -3 29 -9 37
-9 12 -8 13 4 6 12 -7 13 -6 3 6 -10 12 -10 18 0 29 9 10 9 11 0 6 -10 -5 -13
5 -13 39 0 27 -4 44 -9 40 -10 -5 -6 33 3 43 3 2 1 13 -4 23 -7 12 -6 19 3 22
9 4 9 6 -1 6 -10 1 -10 6 -1 22 8 15 8 19 0 15 -6 -4 -11 0 -11 8 0 9 6 16 13
16 7 0 8 3 2 8 -6 4 -12 21 -14 37 -1 17 -8 33 -15 37 -8 6 -8 8 0 8 7 0 11
17 10 44 0 24 -4 42 -8 39 -5 -2 -8 1 -8 6 0 6 5 11 11 11 8 0 8 4 0 14 -9 11
-9 15 1 19 11 4 10 6 0 6 -7 1 -10 6 -7 11 3 6 2 10 -4 10 -7 0 -7 8 -1 25 5
13 5 27 1 29 -5 3 -7 19 -5 36 2 17 -1 30 -7 30 -8 0 -8 4 0 14 9 10 9 16 1
21 -8 5 -7 11 2 23 11 13 11 14 -1 7 -11 -6 -13 -3 -9 13 4 12 2 22 -3 22 -5
0 -9 5 -9 11 0 6 6 7 13 2 6 -4 4 5 -6 20 -12 19 -14 27 -5 27 10 0 10 3 -1 9
-7 5 -10 14 -7 20 4 6 2 11 -4 11 -6 0 -9 4 -5 9 3 5 1 12 -3 15 -5 3 -7 18
-4 32 3 16 1 25 -5 21 -5 -3 -8 7 -7 24 1 16 -3 29 -9 29 -8 0 -7 4 2 9 11 7
10 11 -5 20 -11 6 -13 11 -6 11 10 0 10 5 2 20 -8 15 -8 20 2 20 8 0 9 3 3 8
-17 11 -15 47 3 58 9 6 85 46 167 89 410 213 605 314 800 415 77 40 144 76
150 81 5 5 17 9 26 9 10 0 19 3 21 8 2 4 41 27 88 50 47 24 150 78 230 119 80
42 206 107 280 146 74 38 189 98 255 132 66 34 183 95 260 135 77 40 185 96
240 125 55 29 177 92 270 140 94 48 224 116 290 150 66 34 183 95 260 135 77
40 146 77 153 82 6 6 12 7 12 4 0 -4 14 2 30 14 33 24 53 17 63 -20 4 -15 -1
-22 -19 -26 -13 -3 -24 -10 -24 -14 0 -4 -10 -10 -22 -13 -44 -11 -130 -106
-124 -137 3 -16 38 -97 62 -142 8 -14 14 -33 14 -42 0 -9 5 -16 10 -16 6 0 10
-7 10 -15 0 -18 32 -89 43 -93 4 -2 7 -10 7 -18 0 -8 16 -48 35 -89 19 -41 37
-86 41 -100 3 -14 9 -25 13 -25 4 0 8 -10 8 -22 1 -13 7 -24 13 -26 5 -2 10
-13 10 -25 0 -12 7 -30 15 -40 7 -11 12 -27 10 -38 -2 -10 1 -18 7 -16 6 1 12
-6 13 -16 2 -10 7 -26 11 -35 4 -9 8 -24 10 -32 2 -8 8 -26 15 -40 6 -14 16
-35 22 -47 5 -11 6 -26 3 -32 -4 -6 0 -14 8 -17 9 -3 14 -10 11 -14 -3 -4 2
-26 9 -48 8 -22 12 -43 9 -46 -4 -3 -1 -6 5 -6 7 0 12 -13 12 -30 0 -16 4 -30
8 -30 4 0 8 -9 9 -21 2 -28 23 -131 30 -149 10 -24 9 -44 -2 -59 -7 -11 -7
-13 3 -7 11 7 17 -5 13 -28 -1 -5 1 -16 5 -25 3 -9 8 -27 9 -41 1 -14 5 -47 9
-73 4 -27 3 -46 -2 -44 -4 3 -8 -4 -9 -16 0 -12 1 -16 4 -9 8 21 21 13 19 -12
-1 -17 -4 -22 -13 -15 -8 7 -10 5 -6 -10 3 -12 9 -19 13 -16 4 3 7 -18 6 -46
-1 -28 2 -53 6 -55 8 -5 5 -31 -5 -40 -4 -4 1 -16 10 -27 11 -13 12 -17 4 -12
-11 6 -13 4 -8 -10 5 -11 1 -23 -10 -32 -17 -13 -16 -14 7 -9 14 3 19 3 12 0
-6 -3 -10 -10 -7 -15 4 -5 -2 -6 -12 -2 -15 6 -16 4 -5 -9 7 -9 11 -22 10 -29
-2 -8 3 -13 10 -11 8 1 11 -2 7 -8 -3 -6 -12 -7 -18 -3 -16 10 -37 13 -37 5 0
-4 -13 -8 -29 -8 -21 -1 -32 5 -42 22 -11 22 -13 22 -24 7 -11 -14 -15 -15
-28 -4 -21 17 -36 6 -31 -22 2 -12 2 -16 -2 -9 -3 6 -10 12 -15 12 -6 0 -7 -5
-3 -12 4 -6 3 -8 -4 -4 -5 3 -13 0 -15 -6 -4 -10 -6 -10 -6 0 -1 8 -6 10 -13
5 -7 -4 -22 -9 -33 -10 -16 -2 -17 -1 -5 6 8 5 18 7 24 4 5 -3 6 -1 2 5 -4 7
1 10 14 7 12 -2 18 0 14 6 -3 6 -9 8 -12 5 -3 -3 -11 -1 -19 6 -11 9 -13 8
-11 -3 2 -9 -7 -14 -28 -15 -18 -1 -41 -7 -53 -13 -16 -9 -21 -9 -22 1 0 7 -4
4 -9 -7 -7 -16 -9 -16 -9 -4 -1 13 -10 16 -43 13 -24 -2 -52 -5 -63 -7 -11 -3
-24 -2 -30 2 -19 11 -32 9 -32 -5 0 -7 4 -11 9 -8 4 3 8 -1 8 -8 0 -8 3 -9 8
-3 12 17 53 11 68 -9 8 -11 14 -15 14 -10 0 6 -5 15 -12 22 -16 16 4 16 21 0
10 -9 12 -9 7 -1 -3 6 -1 15 5 19 7 4 9 3 6 -2 -3 -6 -2 -16 4 -24 7 -12 9
-11 9 5 1 20 1 20 15 1 9 -12 15 -15 15 -7 0 8 8 11 20 8 12 -3 23 1 29 10 7
13 9 13 14 -1 4 -10 3 -15 -2 -12 -5 3 -11 0 -14 -7 -3 -7 3 -13 13 -13 10 0
18 4 17 10 -1 5 16 10 38 11 23 0 47 5 54 10 10 5 12 4 7 -3 -10 -16 7 -15 23
1 11 9 13 9 7 0 -4 -8 -1 -13 8 -13 9 0 16 -7 16 -16 0 -8 5 -12 11 -9 6 4 8
14 4 24 -5 13 -4 14 6 4 17 -17 32 -17 23 0 -6 9 -5 9 8 0 8 -7 18 -10 21 -6
4 3 7 2 7 -4 0 -5 7 -10 15 -10 10 0 14 6 10 16 -3 9 4 3 16 -12 16 -20 27
-26 43 -22 19 5 19 5 3 -5 -15 -9 -22 -8 -36 4 -10 9 -21 13 -24 9 -9 -8 44
-44 54 -37 4 2 11 -1 15 -7 4 -8 3 -9 -4 -5 -13 8 -17 -6 -5 -18 12 -12 12
-40 0 -48 -8 -6 -9 -10 -1 -15 12 -9 14 -54 2 -47 -4 3 -8 0 -8 -5 0 -6 4 -11
8 -11 4 0 8 -9 9 -20 1 -11 -1 -18 -5 -16 -4 3 -8 -4 -8 -14 0 -10 4 -16 8
-14 4 3 8 0 8 -5 0 -6 -6 -11 -12 -11 -8 0 -9 -3 -3 -8 14 -10 20 -56 6 -48
-8 5 -8 -1 -1 -19 13 -34 13 -38 -2 -29 -10 6 -10 4 -2 -7 6 -8 9 -39 8 -69
-1 -30 -5 -113 -8 -185 -8 -169 -16 -308 -31 -485 -3 -36 -8 -99 -11 -140 -3
-41 -7 -88 -9 -105 -2 -16 -6 -66 -9 -110 -9 -124 -16 -207 -20 -247 -2 -20
-1 -51 3 -70 l7 -33 56 57 c31 32 62 71 69 88 8 16 17 30 20 30 4 0 9 8 13 18
3 9 11 26 18 37 7 11 20 31 29 45 34 53 89 160 83 160 -4 0 0 8 8 18 13 14
110 205 113 222 1 3 18 41 39 85 21 44 39 85 40 90 1 6 8 21 16 35 8 14 15 28
16 33 1 4 3 9 4 12 1 3 3 8 5 13 1 4 14 32 28 62 15 30 27 61 27 68 0 6 4 12
10 12 5 0 7 6 4 13 -3 8 2 20 11 27 8 7 15 19 15 28 0 19 32 92 40 92 3 0 7
11 8 26 1 14 7 35 14 47 7 12 12 25 13 29 0 4 6 13 13 20 6 6 12 20 12 31 0
28 19 58 33 51 9 -5 9 -4 0 6 -14 15 -6 40 13 40 8 0 14 5 14 11 0 5 -4 8 -9
5 -5 -4 -2 16 7 44 9 27 20 50 24 50 5 0 6 5 3 10 -3 6 -2 10 4 10 5 0 8 8 6
18 -1 9 4 27 11 40 8 12 12 22 8 22 -3 0 1 12 11 26 9 14 14 28 11 32 -3 3 1
16 9 29 9 13 13 28 10 33 -3 6 -1 10 5 10 6 0 8 5 4 12 -4 7 -3 8 4 4 7 -4 12
-1 12 8 0 9 5 16 11 16 6 0 8 -7 5 -15 -5 -14 -4 -14 16 -1 16 11 25 13 35 4
10 -8 13 -6 13 11 0 18 -4 21 -21 16 -16 -5 -19 -4 -14 5 5 9 4 11 -4 6 -6 -4
-8 -12 -5 -18 4 -6 -2 -5 -15 1 -17 10 -19 16 -11 31 5 10 10 28 10 39 0 11 7
26 15 34 10 10 11 17 4 19 -8 3 -7 9 3 19 8 8 13 25 12 37 -2 12 1 22 6 22 6
0 9 3 9 8 -1 4 0 9 1 12 1 3 3 14 5 25 2 11 11 52 20 90 25 106 25 107 39 191
39 227 48 619 20 909 -3 28 -6 69 -8 91 -2 23 -7 47 -10 53 -4 6 -5 15 -1 20
3 5 -1 47 -8 94 -8 46 -13 91 -11 100 1 9 -2 17 -6 17 -5 0 -7 10 -5 21 4 18
-7 86 -49 312 -3 12 -5 23 -7 25 -1 1 -3 11 -4 22 -1 11 -3 21 -5 23 -3 4 -8
29 -20 97 -6 36 -14 72 -17 80 -4 8 -5 19 -4 24 1 4 -3 13 -8 20 -5 6 -12 37
-16 69 -4 31 -10 57 -14 57 -4 0 -7 8 -8 18 -2 17 -14 72 -28 122 -4 14 -9 40
-12 58 -3 17 -9 32 -13 32 -5 0 -9 8 -9 18 -1 39 -14 92 -22 92 -5 0 -9 11 -9
25 0 13 -6 42 -14 62 -7 21 -19 58 -26 83 -7 25 -17 56 -22 70 -6 14 -15 36
-21 50 -19 49 -41 85 -69 113 -15 16 -28 33 -28 38 0 5 -5 9 -11 9 -7 0 -17 7
-23 15 -14 19 -98 10 -126 -14 -22 -18 -27 -63 -16 -126 6 -33 4 -42 -12 -52
-24 -14 -200 -107 -324 -171 -51 -26 -95 -49 -98 -52 -3 -3 -57 -31 -120 -64
-186 -95 -340 -175 -415 -216 -38 -20 -128 -68 -200 -105 -71 -37 -159 -84
-195 -103 -36 -19 -135 -71 -220 -116 -85 -44 -181 -94 -212 -111 -31 -16
-106 -55 -165 -85 -59 -30 -110 -57 -113 -60 -3 -3 -29 -17 -57 -30 -29 -14
-53 -28 -53 -32 0 -5 -8 -8 -19 -8 -10 0 -24 -7 -31 -15 -7 -9 -15 -13 -17
-11 -3 2 -30 -10 -61 -28 -32 -18 -128 -70 -214 -114 -86 -45 -176 -92 -200
-105 -24 -13 -108 -58 -188 -100 -80 -42 -188 -99 -240 -127 -52 -28 -112 -58
-132 -66 -21 -9 -38 -20 -38 -25 0 -5 -6 -9 -14 -9 -13 0 -75 -29 -86 -40 -3
-3 -34 -20 -70 -38 -113 -59 -271 -142 -375 -197 -55 -29 -103 -51 -107 -48
-5 2 -8 0 -8 -5 0 -5 -35 -27 -77 -49 -139 -71 -318 -165 -328 -173 -5 -4 -19
-4 -30 1 -13 5 -15 8 -5 8 13 1 13 2 0 11 -8 5 -10 10 -5 10 6 0 3 5 -5 10
-11 7 -12 10 -2 10 10 0 9 4 -2 16 -9 8 -14 19 -11 24 3 5 -1 11 -7 13 -10 4
-10 6 0 6 10 1 9 5 -3 17 -9 10 -14 25 -12 35 3 11 1 19 -4 19 -5 0 -9 8 -9
18 0 10 -5 23 -12 30 -9 9 -9 12 2 12 9 0 8 5 -5 20 -11 12 -13 20 -6 20 7 0
9 5 6 10 -4 6 6 10 22 11 31 1 42 3 91 18 17 5 32 7 32 4 0 -3 6 -1 13 4 6 6
45 20 84 32 150 45 424 164 598 261 33 18 69 38 80 44 11 6 22 13 25 16 3 3
21 14 40 24 19 11 58 34 86 53 28 18 56 33 62 33 6 0 12 3 14 8 2 4 41 32 88
61 47 30 87 58 88 63 2 4 8 8 14 8 5 0 20 8 33 18 12 9 33 24 45 32 36 25 145
104 150 110 3 3 25 21 50 40 25 19 52 41 62 49 9 9 40 37 70 63 92 80 237 229
313 319 43 52 71 87 95 119 14 18 31 39 38 46 6 7 12 17 12 22 0 6 4 12 8 14
10 4 122 167 122 177 0 4 8 16 18 27 34 39 151 267 196 386 32 81 72 250 82
338 14 124 8 431 -10 540 -3 14 -9 63 -15 110 -6 47 -14 96 -17 110 -6 29 -22
111 -30 155 -3 17 -7 37 -10 45 -3 8 -8 26 -10 40 -3 14 -19 76 -38 138 l-33
112 26 1 c14 0 35 3 46 5 11 3 26 6 33 6 6 1 12 5 12 10 0 4 5 8 10 8 17 0 51
40 76 90 20 41 39 59 64 64 3 1 54 25 114 54 59 28 112 52 117 52 5 0 9 4 9 8
0 5 21 19 48 32 26 13 53 30 60 37 7 7 19 13 27 13 7 0 15 4 17 8 2 5 28 22
58 39 255 141 458 290 623 458 337 343 417 438 447 530 31 94 13 230 -38 285
-12 13 -22 27 -22 31 0 4 -8 9 -17 12 -10 4 -35 13 -55 20 -21 8 -39 13 -40
11 -2 -1 -23 -5 -48 -8 -55 -7 -102 -16 -110 -21 -3 -2 -46 -7 -95 -10 -50 -4
-92 -9 -94 -11 -2 -2 -12 1 -22 6 -12 7 -20 7 -24 0 -4 -6 -11 -8 -16 -5 -5 4
-66 8 -136 10 -200 7 -537 23 -623 30 -127 11 -166 16 -267 34 -142 26 -230
50 -308 82 -34 14 -42 16 -70 23 -11 2 -20 5 -20 6 0 2 -36 10 -57 12 -10 1
-18 5 -18 8 0 4 -6 7 -12 8 -7 0 -24 3 -38 7 -14 3 -36 8 -49 11 -13 3 -39 11
-57 19 -19 8 -34 12 -34 10 0 -2 -16 3 -35 11 -19 8 -36 14 -37 13 -6 -1 -234
82 -376 137 -35 14 -100 34 -145 45 -45 11 -86 21 -92 22 -5 1 -16 6 -22 10
-7 5 -13 6 -13 3 0 -3 -24 3 -52 15 -29 11 -57 22 -63 23 -5 2 -17 6 -25 9 -8
4 -33 13 -55 21 -22 7 -76 28 -120 46 -161 65 -819 289 -865 295 -19 2 -107
30 -115 36 -5 4 -23 9 -40 12 -16 3 -61 15 -100 27 -38 12 -77 23 -85 25 -8 3
-45 13 -83 24 -72 21 -83 23 -222 42 -85 12 -421 20 -430 11z m5049 -5327
c-25 -33 -44 -38 -44 -11 0 9 47 41 68 45 2 1 -9 -15 -24 -34z m-67 -2270 c5
-14 8 -14 24 1 16 14 26 14 17 1 -2 -2 4 -12 12 -23 11 -15 11 -16 0 -6 -8 6
-20 12 -28 12 -8 0 -10 -5 -6 -12 6 -10 5 -10 -8 -1 -8 7 -19 9 -24 5 -5 -4
-6 -3 -2 2 4 5 3 15 -3 23 -9 9 -8 13 0 13 6 0 14 -7 18 -15z m173 -71 c0 -2
-7 -4 -15 -4 -8 0 -15 4 -15 10 0 5 7 7 15 4 8 -4 15 -8 15 -10z m-7883 -3070
c-3 -3 -12 -4 -19 -1 -8 3 -5 6 6 6 11 1 17 -2 13 -5z m1720 -3789 c0 -8 -4
-12 -9 -9 -5 3 -6 10 -3 15 9 13 12 11 12 -6z"/>
<path d="M11536 7527 c3 -10 9 -15 12 -12 3 3 0 11 -7 18 -10 9 -11 8 -5 -6z"/>
<path d="M11530 7459 c0 -5 5 -7 10 -4 6 3 10 8 10 11 0 2 -4 4 -10 4 -5 0
-10 -5 -10 -11z"/>
<path d="M11616 7458 c3 -5 10 -6 15 -3 13 9 11 12 -6 12 -8 0 -12 -4 -9 -9z"/>
<path d="M11535 7421 c-3 -5 -2 -12 3 -15 5 -3 9 1 9 9 0 17 -3 19 -12 6z"/>
<path d="M11536 7362 c-3 -5 1 -9 9 -9 8 0 12 4 9 9 -3 4 -7 8 -9 8 -2 0 -6
-4 -9 -8z"/>
<path d="M11584 7349 c0 -9 5 -15 11 -12 7 2 12 10 12 17 0 7 -5 13 -12 13 -6
0 -11 -8 -11 -18z"/>
<path d="M11641 7354 c0 -11 3 -14 6 -6 3 7 2 16 -1 19 -3 4 -6 -2 -5 -13z"/>
<path d="M11658 7327 c-7 -8 -20 -16 -28 -20 -12 -4 -12 -6 2 -6 9 -1 24 7 33
16 15 14 20 15 39 3 19 -12 20 -12 7 3 -16 20 -35 22 -53 4z"/>
<path d="M11686 7306 c5 -13 4 -17 -4 -12 -7 4 -12 2 -12 -3 0 -14 17 -14 26
0 3 6 1 16 -5 22 -9 9 -10 7 -5 -7z"/>
<path d="M11559 7293 c-13 -16 -12 -17 4 -4 9 7 17 15 17 17 0 8 -8 3 -21 -13z"/>
<path d="M11709 7290 c-1 -5 -2 -15 -3 -22 0 -6 -7 -13 -15 -16 -8 -3 -11 0
-7 7 11 18 -6 13 -19 -6 -11 -14 -10 -19 3 -29 23 -16 23 -42 1 -49 -11 -4
-17 -10 -14 -15 3 -5 1 -11 -5 -15 -5 -3 -10 1 -10 9 0 19 -16 21 -26 4 -4 -7
-3 -8 4 -4 12 7 16 -5 13 -31 -1 -7 3 -13 9 -13 6 0 4 -8 -5 -17 -16 -15 -16
-18 -1 -28 9 -7 13 -15 9 -18 -5 -6 7 -5 47 5 20 4 31 20 21 33 -9 13 -8 26 4
45 12 19 14 49 3 56 -4 3 -5 11 -1 17 11 18 12 36 3 42 -5 3 -7 17 -4 30 2 14
2 25 -1 25 -3 0 -6 -4 -6 -10z m-6 -60 c4 0 5 6 1 13 -4 6 -3 8 1 4 13 -11 15
-36 4 -43 -5 -3 -6 -11 -2 -17 12 -19 10 -47 -3 -58 -7 -5 -11 -21 -8 -34 5
-31 -23 -49 -49 -30 -15 11 -15 14 -3 25 9 6 19 9 25 6 5 -3 8 2 6 11 -1 10 5
26 13 36 15 16 14 17 -1 11 -16 -6 -21 -17 -18 -36 1 -10 -16 -10 -22 0 -7 10
29 53 37 45 3 -4 6 -2 7 3 0 5 2 17 4 26 2 9 -3 22 -11 29 -8 6 -14 16 -14 22
0 7 4 7 12 -1 7 -7 16 -12 21 -12z"/>
<path d="M11689 7133 c-13 -16 -12 -17 4 -4 9 7 17 15 17 17 0 8 -8 3 -21 -13z"/>
<path d="M11655 7082 c-2 -3 -2 -8 1 -13 5 -9 34 -1 34 10 0 8 -27 10 -35 3z"/>
<path d="M11504 7278 c-4 -7 -3 -8 5 -4 6 4 20 2 29 -6 15 -12 16 -11 3 5 -16
20 -27 22 -37 5z"/>
<path d="M11623 7279 c9 -5 17 -15 17 -20 0 -6 -6 -7 -12 -3 -18 11 -48 12
-42 2 3 -5 13 -7 22 -6 9 2 16 -3 15 -9 -2 -7 1 -13 5 -13 11 0 35 51 27 58
-3 3 -5 -1 -5 -8 0 -11 -3 -11 -12 -2 -7 7 -17 12 -22 12 -6 0 -3 -5 7 -11z"/>
<path d="M11505 7239 c-3 -4 2 -6 10 -5 21 3 28 13 10 13 -9 0 -18 -4 -20 -8z"/>
<path d="M11556 7233 c-6 -14 -5 -15 5 -6 7 7 10 15 7 18 -3 3 -9 -2 -12 -12z"/>
<path d="M11494 7200 c0 -13 4 -16 10 -10 7 7 7 13 0 20 -6 6 -10 3 -10 -10z"/>
<path d="M11581 7213 c-1 -6 4 -15 9 -18 6 -4 8 -11 5 -16 -4 -5 -2 -9 4 -9 5
0 9 9 8 19 0 11 -4 18 -8 15 -4 -2 -10 2 -12 8 -4 9 -6 10 -6 1z"/>
<path d="M11650 7213 c16 -8 12 -26 -5 -20 -8 4 -17 2 -19 -2 -3 -5 5 -8 17
-7 23 1 31 27 9 32 -7 1 -8 0 -2 -3z"/>
<path d="M11375 7180 c3 -5 8 -10 11 -10 2 0 4 5 4 10 0 6 -5 10 -11 10 -5 0
-7 -4 -4 -10z"/>
<path d="M11547 7178 c7 -8 9 -19 5 -23 -4 -5 -2 -5 5 -2 6 4 13 2 15 -5 2 -6
15 -13 29 -15 18 -2 20 -1 9 6 -8 5 -18 7 -22 5 -4 -3 -8 1 -8 8 0 7 -10 19
-22 27 -20 13 -22 12 -11 -1z"/>
<path d="M11190 7176 c0 -2 8 -10 18 -17 15 -13 16 -12 3 4 -13 16 -21 21 -21
13z"/>
<path d="M11375 7140 c-3 -5 -1 -10 4 -10 6 0 11 5 11 10 0 6 -2 10 -4 10 -3
0 -8 -4 -11 -10z"/>
<path d="M11557 7119 c4 -13 8 -18 11 -10 2 7 -1 18 -6 23 -8 8 -9 4 -5 -13z"/>
<path d="M11450 7121 c0 -6 4 -12 8 -15 5 -3 9 1 9 9 0 8 -4 15 -9 15 -4 0 -8
-4 -8 -9z"/>
<path d="M11517 7112 c-15 -17 -15 -18 3 -19 11 -1 22 2 25 8 4 5 -2 6 -12 2
-16 -6 -16 -5 -4 10 18 23 8 22 -12 -1z"/>
<path d="M11590 7111 c0 -5 7 -11 15 -15 8 -3 15 -1 15 3 0 5 -7 11 -15 15 -8
3 -15 1 -15 -3z"/>
<path d="M11354 7089 c-3 -6 -2 -15 3 -20 5 -5 9 -1 9 11 0 23 -2 24 -12 9z"/>
<path d="M11426 7079 c4 -8 30 -6 38 2 3 3 -5 5 -19 5 -13 0 -22 -3 -19 -7z"/>
<path d="M11570 7080 c0 -5 5 -10 10 -10 6 0 10 5 10 10 0 6 -4 10 -10 10 -5
0 -10 -4 -10 -10z"/>
<path d="M11386 7062 c-2 -4 4 -8 14 -8 10 0 16 4 14 8 -3 4 -9 8 -14 8 -5 0
-11 -4 -14 -8z"/>
<path d="M11497 7059 c7 -7 15 -10 18 -7 3 3 -2 9 -12 12 -14 6 -15 5 -6 -5z"/>
<path d="M12662 7020 c0 -17 4 -28 9 -25 5 4 9 1 9 -5 0 -8 5 -7 13 2 18 18
18 48 -1 41 -8 -3 -17 0 -21 6 -5 7 -8 -1 -9 -19z m28 -10 c0 -5 -2 -10 -4
-10 -3 0 -8 5 -11 10 -3 6 -1 10 4 10 6 0 11 -4 11 -10z"/>
<path d="M12932 7045 c4 -4 3 -16 -2 -26 -7 -12 -6 -20 2 -25 7 -4 10 -4 6 1
-4 4 -3 16 2 26 7 12 6 20 -2 25 -7 4 -10 4 -6 -1z"/>
<path d="M12755 7029 c-4 -6 -12 -8 -19 -6 -7 3 -13 -4 -13 -14 -1 -10 3 -19
8 -19 6 0 7 -5 3 -12 -4 -7 -3 -8 4 -4 6 4 8 14 5 23 -5 12 -3 14 8 8 19 -12
49 -14 55 -3 3 4 9 6 13 4 4 -3 8 1 8 8 0 15 -14 15 -34 3 -16 -10 -36 1 -28
14 4 5 4 9 1 9 -3 0 -8 -5 -11 -11z"/>
<path d="M13050 7019 c0 -6 -6 -9 -13 -6 -8 3 -14 -1 -14 -8 0 -10 5 -11 19
-4 16 9 25 29 13 29 -3 0 -5 -5 -5 -11z"/>
<path d="M10815 7010 c-4 -6 -11 -7 -17 -4 -7 4 -8 2 -4 -5 6 -9 11 -9 22 0
14 11 18 19 10 19 -3 0 -8 -5 -11 -10z"/>
<path d="M10920 7006 c7 -7 13 -7 20 0 6 6 3 10 -10 10 -13 0 -16 -4 -10 -10z"/>
<path d="M11047 7013 c-3 -5 6 -9 20 -10 19 -1 22 1 12 8 -17 11 -26 11 -32 2z"/>
<path d="M11103 7004 c0 -10 4 -11 10 -5 7 7 15 7 24 0 9 -8 13 -8 13 0 0 6
-3 11 -7 12 -5 0 -15 2 -24 4 -9 1 -16 -4 -16 -11z"/>
<path d="M12847 7003 c4 -11 8 -11 13 -3 5 8 16 9 31 5 13 -4 20 -4 16 1 -4 4
-21 9 -37 10 -22 1 -27 -2 -23 -13z"/>
<path d="M12955 7010 c-3 -5 3 -7 12 -5 10 1 24 -2 31 -8 8 -6 12 -6 12 2 0 6
-3 11 -7 12 -5 0 -16 2 -25 4 -10 2 -20 0 -23 -5z"/>
<path d="M13106 6999 c4 -8 30 -6 38 2 3 3 -5 5 -19 5 -13 0 -22 -3 -19 -7z"/>
<path d="M12615 6990 c-3 -5 -1 -10 4 -10 6 0 11 5 11 10 0 6 -2 10 -4 10 -3
0 -8 -4 -11 -10z"/>
<path d="M11470 6981 c0 -6 4 -13 10 -16 6 -3 7 1 4 9 -7 18 -14 21 -14 7z"/>
<path d="M11495 6980 c3 -5 11 -10 16 -10 6 0 7 5 4 10 -3 6 -11 10 -16 10 -6
0 -7 -4 -4 -10z"/>
<path d="M11531 6985 c0 -5 6 -19 14 -29 8 -11 15 -15 15 -10 0 6 -7 19 -15
30 -8 10 -14 15 -14 9z"/>
<path d="M12813 6975 c0 -8 4 -12 9 -9 5 3 6 10 3 15 -9 13 -12 11 -12 -6z"/>
<path d="M11433 6967 c0 -8 6 -14 14 -14 9 0 10 4 2 14 -6 7 -12 13 -14 13 -1
0 -2 -6 -2 -13z"/>
<path d="M11597 6960 c-24 -15 -25 -19 -13 -29 8 -7 20 -10 25 -7 5 4 12 2 16
-4 3 -5 2 -10 -3 -10 -6 0 -13 -8 -16 -17 -6 -15 -5 -15 13 1 12 11 21 14 26
7 3 -6 1 -11 -4 -11 -6 0 -11 -5 -11 -11 0 -8 4 -8 14 0 9 7 17 8 20 2 3 -5 0
-12 -6 -14 -7 -3 1 -4 18 -2 31 3 32 2 30 -33 -1 -41 -13 -65 -27 -57 -5 4 -9
2 -9 -3 0 -6 7 -13 16 -16 8 -3 12 -2 9 4 -3 6 -1 10 4 10 6 0 11 -4 11 -10 0
-5 5 -10 11 -10 8 0 7 5 -2 16 -7 9 -9 18 -3 22 14 10 16 33 4 47 -8 9 -7 14
4 18 17 7 14 43 -4 39 -8 -2 -10 3 -6 15 4 9 4 15 1 11 -9 -8 -51 34 -47 47 2
6 0 7 -3 3 -4 -4 -15 -4 -24 1 -10 5 -26 2 -44 -9z m81 -30 c12 -12 20 -25 17
-31 -5 -8 7 -13 26 -11 3 1 6 -6 6 -13 0 -10 -4 -12 -12 -5 -7 5 -15 7 -18 3
-4 -3 -7 0 -7 7 0 7 -3 10 -7 7 -3 -4 -21 8 -39 27 -19 19 -35 29 -37 22 -2
-6 -8 -8 -12 -3 -5 4 0 14 11 21 20 15 35 11 72 -24z"/>
<path d="M11636 6942 c-3 -6 -2 -13 4 -17 5 -3 10 -3 10 1 0 4 6 -1 14 -12 8
-10 16 -17 19 -14 2 3 -6 16 -18 29 -14 14 -25 19 -29 13z"/>
<path d="M11510 6950 c-11 -7 -11 -10 -2 -10 7 0 11 -4 7 -9 -3 -5 0 -13 6
-17 7 -4 9 -3 5 4 -3 5 0 13 6 15 10 4 10 6 0 6 -7 1 -10 6 -7 11 8 12 4 12
-15 0z"/>
<path d="M11395 6940 c3 -5 8 -10 11 -10 2 0 4 5 4 10 0 6 -5 10 -11 10 -5 0
-7 -4 -4 -10z"/>
<path d="M11460 6940 c-8 -5 -10 -10 -5 -10 6 0 17 5 25 10 8 5 11 10 5 10 -5
0 -17 -5 -25 -10z"/>
<path d="M11555 6920 c3 -5 8 -10 11 -10 2 0 4 5 4 10 0 6 -5 10 -11 10 -5 0
-7 -4 -4 -10z"/>
<path d="M11535 6899 c-6 -8 -4 -10 5 -4 10 6 12 4 6 -11 -6 -15 -5 -17 5 -6
9 9 10 15 2 23 -8 8 -13 7 -18 -2z"/>
<path d="M11579 6908 c-4 -15 -6 -50 -3 -41 3 7 5 15 4 19 -1 4 4 11 12 15 10
7 10 9 1 9 -7 0 -13 -1 -14 -2z"/>
<path d="M11315 6880 c-3 -5 -1 -10 4 -10 6 0 11 5 11 10 0 6 -2 10 -4 10 -3
0 -8 -4 -11 -10z"/>
<path d="M11487 6879 c7 -7 15 -10 18 -7 3 3 -2 9 -12 12 -14 6 -15 5 -6 -5z"/>
<path d="M11590 6860 c0 -5 8 -6 18 -3 15 6 16 5 2 -13 -14 -18 -14 -18 2 -5
10 7 15 17 12 22 -7 12 -34 11 -34 -1z"/>
<path d="M12535 6860 c-3 -5 -1 -10 4 -10 6 0 11 5 11 10 0 6 -2 10 -4 10 -3
0 -8 -4 -11 -10z"/>
<path d="M11528 6853 c-10 -2 -18 -9 -18 -14 0 -6 8 -5 20 1 11 6 20 13 20 15
0 3 -1 4 -2 4 -2 -1 -11 -3 -20 -6z"/>
<path d="M11446 6838 c3 -5 10 -6 15 -3 13 9 11 12 -6 12 -8 0 -12 -4 -9 -9z"/>
<path d="M11479 6833 c-13 -16 -12 -17 4 -4 9 7 17 15 17 17 0 8 -8 3 -21 -13z"/>
<path d="M11557 6832 c-14 -15 -15 -19 -2 -19 8 0 11 5 8 10 -4 6 0 8 10 4 11
-4 14 -2 10 9 -7 18 -7 18 -26 -4z"/>
<path d="M11640 6831 c0 -9 3 -12 8 -6 9 13 32 17 32 6 0 -5 -7 -11 -15 -15
-17 -6 -20 -26 -4 -26 5 0 7 5 4 10 -3 6 -2 10 4 10 5 0 11 -6 14 -12 2 -7 4
1 5 18 0 27 -3 32 -24 32 -16 0 -24 -6 -24 -17z"/>
<path d="M11615 6821 c-6 -11 13 -26 22 -17 4 3 1 6 -6 6 -7 0 -9 5 -6 10 3 6
4 10 1 10 -3 0 -7 -4 -11 -9z"/>
<path d="M11495 6800 c3 -5 8 -10 11 -10 2 0 4 5 4 10 0 6 -5 10 -11 10 -5 0
-7 -4 -4 -10z"/>
<path d="M11597 6793 c-10 -9 -9 -23 1 -23 5 0 9 7 9 15 0 17 -1 18 -10 8z"/>
<path d="M11641 6764 c0 -11 3 -14 6 -6 3 7 2 16 -1 19 -3 4 -6 -2 -5 -13z"/>
<path d="M12546 6758 c3 -5 10 -6 15 -3 13 9 11 12 -6 12 -8 0 -12 -4 -9 -9z"/>
<path d="M11600 6756 c0 -2 7 -7 16 -10 8 -3 12 -2 9 4 -6 10 -25 14 -25 6z"/>
<path d="M11655 6740 c-3 -6 1 -12 9 -15 9 -3 22 -7 29 -9 8 -2 14 1 14 8 0 8
-10 11 -25 8 -17 -3 -23 -1 -18 7 4 6 5 11 2 11 -3 0 -8 -5 -11 -10z"/>
<path d="M11584 6722 c23 -26 23 -26 23 -7 0 8 -3 13 -5 10 -3 -3 -12 1 -21 7
-10 8 -9 4 3 -10z"/>
<path d="M11315 6721 c-3 -5 -2 -12 3 -15 5 -3 9 1 9 9 0 17 -3 19 -12 6z"/>
<path d="M11630 6705 c-11 -13 -10 -14 4 -9 9 3 16 10 16 15 0 13 -6 11 -20
-6z"/>
<path d="M11666 6702 c-2 -4 4 -8 14 -8 10 0 16 4 14 8 -3 4 -9 8 -14 8 -5 0
-11 -4 -14 -8z"/>
<path d="M12470 6689 c5 -9 6 -20 2 -24 -4 -5 -2 -5 5 -1 7 4 9 14 6 23 -4 10
-2 14 5 9 6 -3 13 -3 16 2 2 4 -6 8 -19 8 -19 0 -22 -3 -15 -17z"/>
<path d="M11575 6661 c-3 -5 -2 -12 3 -15 5 -3 9 1 9 9 0 17 -3 19 -12 6z"/>
<path d="M12502 6644 c10 -10 20 -16 22 -13 3 3 -5 11 -17 18 -21 13 -21 12
-5 -5z"/>
<path d="M12453 6617 c-3 -7 -3 -9 2 -5 4 4 14 0 22 -10 12 -16 13 -16 6 2 -5
15 -3 17 8 11 8 -5 11 -4 6 0 -12 14 -36 14 -44 2z"/>
<path d="M12511 6587 c-8 -10 -7 -14 2 -14 8 0 14 6 14 14 0 7 -1 13 -2 13 -2
0 -8 -6 -14 -13z"/>
<path d="M12467 6579 c7 -7 15 -10 18 -7 3 3 -2 9 -12 12 -14 6 -15 5 -6 -5z"/>
<path d="M11710 6561 c0 -6 4 -13 10 -16 6 -3 7 1 4 9 -7 18 -14 21 -14 7z"/>
<path d="M12575 6520 c-3 -5 -1 -10 4 -10 6 0 11 5 11 10 0 6 -2 10 -4 10 -3
0 -8 -4 -11 -10z"/>
<path d="M3705 4920 c-3 -5 -1 -10 4 -10 6 0 11 5 11 10 0 6 -2 10 -4 10 -3 0
-8 -4 -11 -10z"/>
<path d="M7750 3926 c0 -2 7 -9 15 -16 13 -11 14 -10 9 4 -5 14 -24 23 -24 12z"/>
</g>
</svg>
